<svg width="64" height="64" viewBox="0 0 64 64" fill="none" xmlns="http://www.w3.org/2000/svg">
<path d="M9.99486 27.0265C10.8505 23.8353 16.8431 19.3631 18.04 19.6833C19.2352 20.0036 22.1904 26.8729 21.3347 30.0656C20.4791 33.2569 17.2474 35.164 14.1161 34.3244C10.9847 33.4849 9.14083 30.2178 9.99486 27.0265Z" fill="#E6E9ED"/>
<path d="M13.482 37.8035C13.3882 37.8035 13.2911 37.7906 13.1957 37.7647C12.607 37.6078 12.256 37.0013 12.4145 36.4126L14.8245 27.4146C14.983 26.8259 15.5879 26.4766 16.1766 26.6335C16.767 26.792 17.1164 27.3969 16.9594 27.9857L14.5479 36.9834C14.4169 37.4767 13.9705 37.8035 13.482 37.8035Z" fill="#CCD1D9"/>
<path d="M40.1343 36.5161L33.8037 38.4666L28.8203 22.2923L35.1526 20.3416L40.1343 36.5161Z" fill="#ED5564"/>
<path d="M40.4285 18.7159L23.5439 23.9176L23.704 16.9351L38.4777 12.3853L40.4285 18.7159Z" fill="#434A54"/>
<path d="M46.1087 38.1576L37.7207 34.3972L39.2169 31.0604L42.8416 29.6807L46.2252 31.1978L47.6049 34.821L46.1087 38.1576ZM40.6403 33.2859L44.9976 35.2399L45.2159 34.7513L44.4864 32.8379L42.7719 32.0696L40.8586 32.7974L40.6403 33.2859Z" fill="black"/>
<path d="M53.3212 17.668C53.6722 17.8264 53.8307 18.2405 53.6722 18.5915L47.5535 32.2379C47.3966 32.5889 46.9825 32.7474 46.6299 32.5889L41.5335 30.3034C41.181 30.1449 41.024 29.7324 41.181 29.3798L47.2996 15.7334C47.4581 15.3824 47.8706 15.2255 48.2232 15.3824L53.3212 17.668Z" fill="#A0D468"/>
<path d="M44.634 31.3191C44.4819 31.3191 44.3298 31.2868 44.1827 31.2221C43.6264 30.973 43.3773 30.3195 43.6264 29.7631L47.9999 20.0083C48.2506 19.4518 48.904 19.2028 49.4604 19.4518C50.0169 19.7009 50.2644 20.3543 50.0152 20.9107L45.6415 30.6656C45.4572 31.0765 45.0546 31.3191 44.634 31.3191Z" fill="#8CC153"/>
<path d="M53.5831 29.2922H9.41553V51.375H53.5831V29.2922Z" fill="#F6BB42"/>
<path d="M52.4784 16.0427H10.52V18.2506H52.4784V16.0427Z" fill="#F6BB42"/>
<path d="M18.2503 38.1251H11.6253C11.0139 38.1251 10.5205 37.6318 10.5205 37.022C10.5205 36.4124 11.0139 35.9175 11.6253 35.9175H18.2503C18.8585 35.9175 19.3534 36.4124 19.3534 37.022C19.3534 37.6318 18.8585 38.1251 18.2503 38.1251Z" fill="#DBA037"/>
<path d="M51.3755 35.9176H46.9583C46.3484 35.9176 45.8535 35.4242 45.8535 34.8128C45.8535 34.203 46.3484 33.7097 46.9583 33.7097H51.3755C51.9854 33.7097 52.4786 34.2031 52.4786 34.8128C52.4786 35.4242 51.9854 35.9176 51.3755 35.9176Z" fill="#DBA037"/>
<path d="M13.8331 46.9598H11.6253C11.0139 46.9598 10.5205 46.4648 10.5205 45.855C10.5205 45.2452 11.0139 44.7502 11.6253 44.7502H13.833C14.4429 44.7502 14.9377 45.2452 14.9377 45.855C14.9377 46.4648 14.4429 46.9598 13.8331 46.9598Z" fill="#DBA037"/>
<path d="M51.3755 45.855H43.6459C40.8315 45.855 39.4178 47.3706 38.7271 48.6403C38.0267 49.9308 37.9508 51.1876 37.9443 51.3267C37.9443 51.3429 37.9443 51.359 37.9443 51.3753H40.1554C40.1764 51.165 40.2784 50.3837 40.6989 49.6381C41.299 48.5789 42.263 48.0628 43.6459 48.0628H51.3755C51.9854 48.0628 52.4786 47.5695 52.4786 46.9597C52.4786 46.35 51.9854 45.855 51.3755 45.855Z" fill="#DBA037"/>
<path d="M11.6251 11.6245H5V51.3749H11.6251V11.6245Z" fill="#FFCE54"/>
<path d="M58.0001 11.6245H51.375V51.3749H58.0001V11.6245Z" fill="#FFCE54"/>
</svg>
